<svg width="32" height="32" viewBox="0 0 32 32" fill="none" xmlns="http://www.w3.org/2000/svg">
<path d="M27.3923 4.44006C26.8053 3.85339 25.8536 3.85324 25.2666 4.44006L16.0578 13.6495L6.89925 4.4916C6.31224 3.90459 5.36061 3.90469 4.77354 4.4916C4.18648 5.07866 4.18647 6.03025 4.77354 6.61731L14.1813 16.0251L4.77354 25.4336C4.18652 26.0206 4.18662 26.9729 4.77354 27.5599C5.36059 28.1466 6.3123 28.1468 6.89925 27.5599L16.1081 18.3498L25.2666 27.5084C25.8536 28.0953 26.8053 28.0953 27.3923 27.5084C27.9792 26.9214 27.9793 25.9697 27.3923 25.3827L17.9839 15.9749L27.3923 6.56642C27.9792 5.97944 27.9791 5.0271 27.3923 4.44006Z" fill="#F9EEEB"/>
</svg>
